<svg width="241" height="270" viewBox="0 0 241 270" fill="none" xmlns="http://www.w3.org/2000/svg">
<path d="M105.182 112.48L105.193 112.53L105.208 112.489L105.215 112.468L105.182 112.48Z" fill="black"/>
<path fill-rule="evenodd" clip-rule="evenodd" d="M106.538 121.375L106.608 121.501C109.891 120.485 113.476 118.863 117.439 116.376C122.98 112.897 130.562 107.521 138.601 101.82C142.937 98.7455 147.406 95.5762 151.759 92.5603C159.975 86.8676 167.043 84.9114 172.798 85.5393C178.446 78.7933 178.746 70.3885 168.55 69.5116C158.627 68.6664 150.065 52.5645 150.065 52.5645C153.853 58.1571 159.598 59.1773 165.342 60.1973C169.166 60.8764 172.989 61.5553 176.234 63.5836C184.356 68.6657 186.606 75.4477 182.982 83.9099C182.337 85.4193 181.234 86.7481 179.857 87.9126C185.951 91.6205 189.526 99.0658 190.18 107.426C189.606 108.43 188.99 109.368 188.335 110.258C191.726 112.291 195.678 115.223 198.914 119.186C199.832 120.53 200.855 120.684 201.915 120.022C202.327 119.766 204.833 117.848 207.848 115.541C212.563 111.933 218.522 107.373 219.667 106.722C221.261 105.814 227.977 106.594 232.221 108.573L230.786 117.45C229.968 117.002 229.314 116.55 229.148 116.195C229.067 116.022 229.172 115.637 229.393 115.13C228.165 114.375 222.382 110.868 221.575 111.204C221.331 111.306 219.951 112.709 217.997 114.695C212.723 120.057 203.267 129.67 200.666 129.435C198.707 129.259 193.408 128.296 188.482 126.422C188.441 126.606 188.415 126.704 188.415 126.704C188.415 126.704 195.004 134.401 200.419 141.561C204.799 139.061 223.039 132.738 226.459 132.284C226.976 132.215 227.635 132.247 228.376 132.347L227.467 137.963C226.959 137.838 226.49 137.77 226.091 137.78C224.616 137.818 218.644 141.171 212.491 144.626C207.338 147.518 202.059 150.482 199.187 151.631C196.72 152.618 194.89 150.987 192.825 148.925C188.798 144.906 180.311 136.766 178.016 134.566L178.01 134.559C177.641 134.206 177.434 134.008 177.434 134.007C172.068 136.777 166.127 138.111 160.441 138.133C160.398 138.197 160.356 138.261 160.313 138.325C159.045 139.988 157.939 141.478 156.957 142.822C151.477 149.503 144.346 155.566 138.193 159.755C139.86 162.017 141.389 164.294 142.448 166.285C143.595 168.442 147.944 181.548 146.459 186.703C145.863 188.774 142.4 197.501 142.4 197.501L142.376 197.489L142.398 197.502C142.398 197.502 140.529 206.472 137.82 205.703C135.196 204.959 132.131 200.609 132.444 199.491C132.864 198 134.124 194.496 134.976 194.029C135.107 193.957 135.374 193.989 135.732 194.096C136.623 193.183 142.717 186.804 142.031 183.925C140.237 176.413 135.573 170.043 131.31 165.518C133.081 171.401 134.793 179.715 133.418 181.132C130.489 184.166 119.387 191.666 112.957 192.227C108.287 192.636 103.366 192.451 103.366 192.451L103.367 192.449C103.065 192.438 94.2239 192.088 94.5129 189.337C94.8007 186.622 98.5658 182.863 99.7183 182.981C101.257 183.137 104.922 183.779 105.53 184.54C105.664 184.708 105.634 185.184 105.507 185.825C106.211 186.062 111.245 187.701 113.595 186.897C120.383 184.57 126.87 179.253 127.28 178.014C127.811 176.416 118.786 167.965 112.404 162.244C111.452 161.897 110.594 161.541 109.856 161.198L109.838 161.24C107.824 159.5 105.973 157.163 104.443 154.028C104.443 154.028 102.927 153.617 100.644 152.915C86.4346 149.803 78.018 143.738 73.2689 137.506C73.2643 137.506 73.2598 137.507 73.2552 137.507C73.2421 137.484 73.2291 137.46 73.216 137.437C72.9876 137.135 72.7677 136.833 72.5562 136.531C72.0041 135.743 71.6243 134.896 71.399 134.018C70.9787 133.188 70.5743 132.356 70.1971 131.535C66.8892 124.341 64.2509 114.659 64.2509 114.659C62.3911 117.051 57.8124 118.104 53.5367 117.498C49.9555 118.884 48.6601 119.867 46.6416 121.398C45.8002 122.037 44.833 122.771 43.5225 123.669C40.1204 125.998 34.6488 120.222 37.0876 116.392C37.8407 115.208 39.9834 112.831 42.1355 110.444C43.3684 109.076 44.6044 107.705 45.5838 106.553C46.6124 105.343 47.4565 104.156 48.2802 102.998C50.8616 99.3693 53.2433 96.0211 60.4803 93.1147C60.5561 91.1476 60.0039 88.9343 58.2804 86.5622C57.7582 85.8436 57.5004 85.3936 57.453 85.1593C57.3757 84.8046 57.7733 84.9343 58.4353 85.3593C59.3374 85.9663 60.2078 86.6193 61.043 87.3155L62.0709 88.1543C63.2349 89.125 64.4091 90.1428 65.3134 90.9369C65.488 90.7235 65.7285 90.5385 66.0386 90.4079C69.9235 88.736 74.2709 88.4758 78.3275 89.6723C78.5607 89.7398 78.8095 89.8682 79.0575 89.9963C79.1711 90.055 79.2849 90.1137 79.3967 90.1663C80.7235 90.6508 81.9998 91.264 83.2071 91.9973C87.342 94.56 89.8362 97.5701 91.8656 100.622C94.4592 102.807 97.5723 104.577 102.167 105.362C102.167 105.362 99.8379 107.373 96.1253 107.367C98.4726 110.825 101.359 113.929 106.774 115.995L106.755 116.03C106.152 116.357 99.7448 119.577 93.3686 112.446C94.3814 115.768 96.1151 118.391 97.6281 120.208C98.0553 120.243 98.4806 120.275 98.903 120.308C101.665 120.519 104.304 120.722 106.538 121.375ZM62.4031 104.228C62.147 105.845 60.6282 106.949 59.0108 106.693C57.3934 106.436 56.2899 104.918 56.5461 103.3C56.8022 101.683 58.321 100.579 59.9384 100.836C61.5558 101.092 62.6593 102.611 62.4031 104.228Z" fill="black"/>
<path d="M102.567 157.29L102.565 157.301L102.626 157.314L102.567 157.29Z" fill="black"/>
<path d="M145.835 75.876C145.835 89.4815 134.806 100.511 121.2 100.511C107.595 100.511 96.5652 89.4815 96.5652 75.876C96.5652 62.2704 107.595 51.2409 121.2 51.2409C134.806 51.2409 145.835 62.2704 145.835 75.876Z" fill="#D2990B"/>
<path d="M199.045 168.504C199.045 182.109 188.016 193.139 174.41 193.139C160.805 193.139 149.775 182.109 149.775 168.504C149.775 154.898 160.805 143.869 174.41 143.869C188.016 143.869 199.045 154.898 199.045 168.504Z" fill="#D2990B"/>
<path d="M90.6499 168.504C90.6499 182.109 79.6205 193.139 66.0149 193.139C52.4094 193.139 41.3799 182.109 41.3799 168.504C41.3799 154.898 52.4094 143.869 66.0149 143.869C79.6205 143.869 90.6499 154.898 90.6499 168.504Z" fill="#D2990B"/>
<path fill-rule="evenodd" clip-rule="evenodd" d="M120.948 270L126.306 267.28C136.772 261.969 147.019 256.215 156.79 249.709C183.25 232.091 203.755 210.459 217.922 181.829C233.661 150.031 239.423 113.818 240.312 78.3493C240.393 77.5358 240.435 76.7108 240.435 75.876C240.435 75.3808 240.42 74.8892 240.391 74.4012C240.466 69.4597 240.449 64.5363 240.355 59.6453L240.17 49.9561L230.801 47.4344C195.242 37.8558 158.543 24.5565 127.456 4.52999L120.426 0L113.41 4.55463C81.6142 25.1997 47.6964 39.1573 10.691 47.2894L1.1112 49.3958L0.566095 59.1755C-2.62755 116.556 7.03981 175.106 46.3105 219.439C65.3185 240.898 89.1065 256.529 115.413 267.658L120.948 270ZM198.426 58.41C171.735 49.7504 144.793 38.5245 120.475 23.4322C96.3444 38.6601 71.0479 50.3198 44.2901 58.7292C48.5901 63.1641 51.2369 69.2109 51.2369 75.876C51.2369 89.4815 40.2074 100.511 26.6019 100.511C24.467 100.511 22.3956 100.239 20.4202 99.729C23.2828 139.861 35.0535 177.009 61.063 206.371C71.5766 218.24 83.866 228.212 97.5505 236.519C96.9092 234.323 96.5652 232.001 96.5652 229.599C96.5652 215.993 107.595 204.964 121.2 204.964C134.806 204.964 145.835 215.993 145.835 229.599C145.835 230.938 145.728 232.252 145.523 233.534C145.638 233.457 145.753 233.381 145.867 233.305C169.867 217.325 187.836 198.192 200.259 173.088C211.173 151.037 216.905 126.124 219.314 100.262C218.166 100.426 216.993 100.511 215.8 100.511C202.194 100.511 191.165 89.4815 191.165 75.876C191.165 69.0496 193.941 62.8717 198.426 58.41Z" fill="#D2990B"/>
</svg>
