<svg width="494" height="104" viewBox="0 0 494 104" fill="none" xmlns="http://www.w3.org/2000/svg">
<path d="M40.5136 43.3261L40.5178 43.3452L40.5236 43.3295L40.5264 43.3214L40.5136 43.3261Z" fill="#F9F9F9"/>
<path fill-rule="evenodd" clip-rule="evenodd" d="M41.0361 46.7523L41.0627 46.8009C42.3276 46.4093 43.7084 45.7847 45.2346 44.8267C47.3691 43.4868 50.2897 41.4157 53.386 39.22C55.0562 38.0357 56.7777 36.8149 58.4544 35.6532C61.6191 33.4605 64.3414 32.707 66.5583 32.9489C68.7338 30.3504 68.8492 27.113 64.9221 26.7752C61.0999 26.4497 57.8019 20.2474 57.8019 20.2474C59.2609 22.4016 61.4739 22.7946 63.6862 23.1875C65.1592 23.4491 66.632 23.7106 67.8817 24.4919C71.0103 26.4494 71.8771 29.0617 70.4811 32.3212C70.2324 32.9026 69.8075 33.4145 69.2772 33.863C71.6246 35.2912 73.0014 38.159 73.2537 41.3794C73.0324 41.7658 72.7951 42.1272 72.5429 42.47C73.8489 43.2533 75.3712 44.3826 76.6177 45.9091C76.9714 46.4268 77.3653 46.4861 77.7736 46.2312C77.9325 46.1323 78.8978 45.3936 80.0591 44.5049C81.875 43.1154 84.1703 41.3589 84.6114 41.1082C85.2254 40.7585 87.8122 41.0588 89.4473 41.8212L88.8942 45.2403C88.5794 45.068 88.3274 44.8937 88.2633 44.7571C88.2322 44.6903 88.2727 44.5418 88.3578 44.3466C87.8847 44.056 85.6571 42.7051 85.3465 42.8345C85.2524 42.8737 84.7209 43.414 83.9682 44.1792C81.9367 46.2445 78.2945 49.9472 77.2926 49.8569C76.5381 49.7889 74.4967 49.4179 72.5994 48.6962C72.5836 48.7672 72.5737 48.8049 72.5737 48.8049C72.5737 48.8049 75.1115 51.7697 77.1973 54.5274C78.8846 53.5645 85.9101 51.1292 87.2277 50.9542C87.4266 50.9278 87.6808 50.9399 87.966 50.9783L87.616 53.1416C87.4202 53.0937 87.2397 53.0672 87.0857 53.0712C86.5176 53.0858 84.2173 54.3773 81.8472 55.708C79.8627 56.8222 77.8293 57.9639 76.7229 58.4064C75.7725 58.7864 75.0676 58.1583 74.2723 57.3639C72.7211 55.816 69.452 52.6807 68.5682 51.8331L68.5657 51.8306C68.4237 51.6945 68.3441 51.6181 68.344 51.6178C66.277 52.6849 63.9887 53.1986 61.7985 53.2071C61.7821 53.2317 61.7657 53.2564 61.7491 53.281C61.2607 53.9215 60.8347 54.4955 60.4564 55.0131C58.3458 57.5867 55.5991 59.9221 53.2288 61.5355C53.8709 62.4069 54.46 63.2841 54.8678 64.0509C55.3096 64.8817 56.985 69.9298 56.4127 71.9156C56.1832 72.7132 54.8493 76.0748 54.8493 76.0748L54.8401 76.0703L54.8485 76.0753C54.8485 76.0753 54.1288 79.5302 53.0852 79.2341C52.0744 78.9473 50.894 77.2719 51.0145 76.8414C51.1763 76.2671 51.6616 74.9173 51.9897 74.7374C52.0403 74.7096 52.1431 74.7222 52.2809 74.7634C52.6242 74.4114 54.9716 71.9545 54.7074 70.8453C54.0163 67.952 52.2198 65.4985 50.5776 63.7556C51.2598 66.0213 51.9194 69.2238 51.3898 69.7697C50.2615 70.9385 45.9852 73.8273 43.5086 74.0434C41.7095 74.201 39.8141 74.1298 39.8141 74.1298L39.8143 74.1289C39.6983 74.1246 36.2927 73.99 36.404 72.9302C36.5149 71.8842 37.9651 70.4364 38.409 70.4819C39.0016 70.5422 40.4133 70.7893 40.6476 71.0825C40.6991 71.147 40.6878 71.3304 40.6389 71.5774C40.91 71.6687 42.849 72.3001 43.7543 71.9903C46.3688 71.0941 48.8675 69.0459 49.0255 68.5689C49.2301 67.9533 45.7536 64.6978 43.2955 62.4942C42.9286 62.3608 42.5981 62.2236 42.314 62.0913L42.3069 62.1076C41.5311 61.4373 40.8184 60.5372 40.229 59.3298C40.229 59.3298 39.645 59.1715 38.7658 58.9008C33.2924 57.7024 30.0504 55.3661 28.2211 52.9657C28.2194 52.9658 28.2176 52.966 28.2159 52.9661C28.2108 52.957 28.2058 52.948 28.2008 52.9389C28.1128 52.8228 28.0281 52.7065 27.9466 52.5902C27.734 52.2866 27.5877 51.9602 27.5009 51.6223C27.339 51.3024 27.1832 50.9819 27.0379 50.6659C25.7638 47.8945 24.7475 44.1653 24.7475 44.1653C24.0312 45.0865 22.2675 45.4924 20.6206 45.259C19.2412 45.7926 18.7422 46.1712 17.9647 46.7612C17.6406 47.0071 17.268 47.2898 16.7632 47.6357C15.4528 48.5331 13.3453 46.3081 14.2847 44.8329C14.5747 44.3767 15.4001 43.4612 16.229 42.5416C16.7039 42.0148 17.18 41.4866 17.5573 41.0428C17.9535 40.5768 18.2786 40.1198 18.5959 39.6737C19.5902 38.276 20.5076 36.9863 23.2952 35.8668C23.3244 35.1091 23.1116 34.2566 22.4478 33.3429C22.2466 33.0661 22.1473 32.8927 22.1291 32.8025C22.0993 32.6659 22.2524 32.7158 22.5075 32.8795C22.8549 33.1133 23.1902 33.3648 23.5119 33.633L23.9078 33.9561C24.3562 34.33 24.8085 34.722 25.1568 35.0279C25.224 34.9457 25.3167 34.8745 25.4361 34.8242C26.9325 34.1802 28.6071 34.0799 30.1696 34.5408C30.2595 34.5668 30.3553 34.6163 30.4508 34.6656C30.4946 34.6882 30.5384 34.7108 30.5814 34.7311C31.0925 34.9177 31.5841 35.1539 32.0492 35.4364C33.6419 36.4235 34.6026 37.5829 35.3843 38.7585C36.3833 39.6003 37.5824 40.2818 39.3521 40.5843C39.3521 40.5843 38.4551 41.3588 37.0251 41.3567C37.9292 42.6885 39.0411 43.8842 41.1269 44.6798L41.1194 44.6936C40.8874 44.8194 38.4192 46.0595 35.9632 43.3127C36.3534 44.5927 37.0212 45.6029 37.6039 46.3027C37.7685 46.316 37.9323 46.3286 38.095 46.3411C39.1589 46.4227 40.1754 46.5007 41.0361 46.7523ZM24.0358 40.1474C23.9371 40.7704 23.3521 41.1955 22.7291 41.0968C22.1061 40.9981 21.6811 40.4131 21.7798 39.7901C21.8784 39.1671 22.4634 38.7421 23.0864 38.8408C23.7094 38.9394 24.1345 39.5244 24.0358 40.1474Z" fill="#F9F9F9"/>
<path d="M39.5062 60.5861L39.5057 60.5904L39.529 60.5954L39.5062 60.5861Z" fill="#F9F9F9"/>
<path d="M56.1736 29.2263C56.1736 34.4669 51.9252 38.7153 46.6845 38.7153C41.4439 38.7153 37.1955 34.4669 37.1955 29.2263C37.1955 23.9856 41.4439 19.7372 46.6845 19.7372C51.9252 19.7372 56.1736 23.9856 56.1736 29.2263Z" fill="#D2990B"/>
<path d="M76.6692 64.9051C76.6692 70.1457 72.4208 74.3941 67.1802 74.3941C61.9395 74.3941 57.6911 70.1457 57.6911 64.9051C57.6911 59.6644 61.9395 55.416 67.1802 55.416C72.4208 55.416 76.6692 59.6644 76.6692 64.9051Z" fill="#D2990B"/>
<path d="M34.917 64.9051C34.917 70.1457 30.6686 74.3941 25.4279 74.3941C20.1873 74.3941 15.9389 70.1457 15.9389 64.9051C15.9389 59.6644 20.1873 55.416 25.4279 55.416C30.6686 55.416 34.917 59.6644 34.917 64.9051Z" fill="#D2990B"/>
<path fill-rule="evenodd" clip-rule="evenodd" d="M46.5874 104L48.651 102.952C52.6826 100.906 56.6293 98.6902 60.3932 96.1841C70.5851 89.3979 78.4833 81.0657 83.9404 70.0379C90.0027 57.7898 92.222 43.841 92.5645 30.179C92.5958 29.8656 92.6118 29.5478 92.6118 29.2263C92.6118 29.0356 92.6061 28.8462 92.595 28.6582C92.6238 26.7548 92.6174 24.8584 92.5812 22.9745L92.5097 19.2423L88.9012 18.271C75.2044 14.5815 61.0682 9.45879 49.0941 1.74488L46.3862 0L43.684 1.75438C31.4366 9.70655 18.3719 15.0828 4.11801 18.2152L0.428018 19.0265L0.218051 22.7935C-1.01209 44.8955 2.71163 67.4481 17.8381 84.5247C25.1597 92.7901 34.3225 98.8109 44.4554 103.098L46.5874 104ZM76.4309 22.4987C66.1497 19.1631 55.772 14.8391 46.4051 9.02571C37.1104 14.8913 27.3666 19.3824 17.0599 22.6216C18.7162 24.3298 19.7357 26.659 19.7357 29.2263C19.7357 34.4669 15.4873 38.7153 10.2466 38.7153C9.42433 38.7153 8.62644 38.6107 7.86557 38.4141C8.96817 53.8722 13.5021 68.1811 23.5205 79.4912C27.5702 84.0629 32.3039 87.9037 37.575 91.1034C37.3279 90.2578 37.1955 89.3633 37.1955 88.4379C37.1955 83.1973 41.4439 78.9489 46.6845 78.9489C51.9252 78.9489 56.1736 83.1973 56.1736 88.4379C56.1736 88.9538 56.1324 89.4601 56.0532 89.9536C56.0975 89.9243 56.1417 89.8948 56.1859 89.8654C65.4302 83.7102 72.3516 76.3407 77.1367 66.671C81.3408 58.1772 83.5484 48.5812 84.4763 38.6195C84.0342 38.6827 83.5823 38.7153 83.1227 38.7153C77.8821 38.7153 73.6337 34.4669 73.6337 29.2263C73.6337 26.5969 74.7032 24.2172 76.4309 22.4987Z" fill="#D2990B"/>
<path d="M110.841 36.375V22.3455H112.903V36.375H110.841Z" fill="white"/>
<path d="M119.294 36.375V22.3455H121.357L129.423 32.9851V22.3455H131.486V36.375H129.423L121.357 25.7355V36.375H119.294Z" fill="white"/>
<path d="M141.767 36.375V24.2651H137.173V22.3455H148.445V24.2651H143.83V36.375H141.767Z" fill="white"/>
<path d="M164.166 24.2651H155.936V28.2677H163.369V30.1873H155.936V34.4554H164.166V36.375H153.853V22.3455H164.166V24.2651Z" fill="white"/>
<path d="M180.928 26.9199C180.928 29.0846 179.458 30.7387 177.334 31.2901L180.908 36.375H178.539L175.108 31.4943H171.882V36.375H169.819V22.3455H175.721C178.682 22.3455 180.928 24.2447 180.928 26.9199ZM171.882 24.2651V29.5747H175.435C177.457 29.5747 178.825 28.574 178.825 26.9199C178.825 25.2658 177.457 24.2651 175.435 24.2651H171.882Z" fill="white"/>
<path d="M186.589 36.375V22.3455H188.651L196.718 32.9851V22.3455H198.78V36.375H196.718L188.651 25.7355V36.375H186.589Z" fill="white"/>
<path d="M216.21 36.375L214.984 33.516H207.674L206.448 36.375H204.161L210.185 22.3455H212.473L218.497 36.375H216.21ZM208.47 31.6577H214.188L211.329 25.0003L208.47 31.6577Z" fill="white"/>
<path d="M226.205 36.375V24.2651H221.61V22.3455H232.883V24.2651H228.268V36.375H226.205Z" fill="white"/>
<path d="M238.311 36.375V22.3455H240.374V36.375H238.311Z" fill="white"/>
<path d="M253.258 36.6201C249.317 36.6201 245.968 33.2914 245.968 29.3501C245.968 25.4087 249.317 22.1005 253.258 22.1005C257.199 22.1005 260.508 25.4087 260.508 29.3501C260.508 33.2914 257.199 36.6201 253.258 36.6201ZM253.258 34.7209C256.056 34.7209 258.404 32.2703 258.404 29.3501C258.404 26.4502 256.056 23.9997 253.258 23.9997C250.46 23.9997 248.091 26.4502 248.091 29.3501C248.091 32.2703 250.46 34.7209 253.258 34.7209Z" fill="white"/>
<path d="M266.34 36.375V22.3455H268.402L276.469 32.9851V22.3455H278.531V36.375H276.469L268.402 25.7355V36.375H266.34Z" fill="white"/>
<path d="M295.961 36.375L294.735 33.516H287.425L286.199 36.375H283.912L289.936 22.3455H292.224L298.248 36.375H295.961ZM288.221 31.6577H293.939L291.08 25.0003L288.221 31.6577Z" fill="white"/>
<path d="M305.271 34.4554H312.704V36.375H303.188V22.3455H305.271V34.4554Z" fill="white"/>
<path d="M123.119 44.9613H127.703V63.375H123.119V56.031H115.588V63.375H111.004V44.9613H115.588V51.9301H123.119V44.9613Z" fill="white"/>
<path d="M140.326 63.6966C134.966 63.6966 130.436 59.3277 130.436 54.1548C130.436 48.9818 134.966 44.6397 140.326 44.6397C145.714 44.6397 150.243 48.9818 150.243 54.1548C150.243 59.3277 145.714 63.6966 140.326 63.6966ZM140.326 59.5422C143.141 59.5422 145.526 57.0763 145.526 54.1548C145.526 51.26 143.141 48.7941 140.326 48.7941C137.512 48.7941 135.126 51.26 135.126 54.1548C135.126 57.0763 137.512 59.5422 140.326 59.5422Z" fill="white"/>
<path d="M169.018 63.375H163.818L159.771 57.6124H157.52V63.375H152.936V44.9613H161.487C165.534 44.9613 168.482 47.5612 168.482 51.2868C168.482 53.9671 166.954 56.0846 164.569 57.0495L169.018 63.375ZM157.52 49.1426V53.4311H161.058C162.639 53.4311 163.765 52.5734 163.765 51.2868C163.765 50.0003 162.639 49.1426 161.058 49.1426H157.52Z" fill="white"/>
<path d="M178.573 63.6966C175.303 63.6966 172.328 62.6245 170.103 60.6143L172.676 57.5319C174.472 59.0061 176.482 59.8638 178.734 59.8638C180.449 59.8638 181.334 59.1669 181.334 58.1752C181.334 57.0763 180.476 56.8351 177.796 56.1918C173.856 55.3073 170.934 54.2352 170.934 50.5363C170.934 46.9983 173.775 44.6397 177.983 44.6397C181.066 44.6397 183.478 45.5242 185.435 47.1592L183.103 50.4291C181.414 49.1426 179.565 48.4725 177.849 48.4725C176.375 48.4725 175.544 49.1694 175.544 50.0807C175.544 51.2064 176.429 51.5817 179.163 52.1713C183.29 53.0558 185.944 54.2352 185.944 57.6928C185.944 61.3916 183.129 63.6966 178.573 63.6966Z" fill="white"/>
<path d="M203.009 49.0622H193.091V51.9301H202.097V56.031H193.091V59.2741H203.009V63.375H188.508V44.9613H203.009V49.0622Z" fill="white"/>
<path d="M213.243 63.375V44.9613H221.794C225.841 44.9613 228.789 47.5612 228.789 51.2868C228.789 55.0125 225.841 57.6124 221.794 57.6124H217.827V63.375H213.243ZM217.827 53.4311H221.365C222.946 53.4311 224.072 52.5734 224.072 51.2868C224.072 50.0003 222.946 49.1426 221.365 49.1426H217.827V53.4311Z" fill="white"/>
<path d="M235.571 59.2741H244.443V63.375H231.015V44.9613H235.571V59.2741Z" fill="white"/>
<path d="M246.932 63.375V44.9613H251.516V63.375H246.932Z" fill="white"/>
<path d="M255.073 63.375V44.9613H259.656L267.67 55.8433V44.9613H272.253V63.375H267.67L259.656 52.493V63.375H255.073Z" fill="white"/>
<path d="M275.829 63.375V44.9613H280.412V52.8146L287.247 44.9613H292.688L285.692 52.7878L293.224 63.375H287.702L282.529 56.0846L280.412 58.3628V63.375H275.829Z" fill="white"/>
<path d="M303.343 63.6966C297.983 63.6966 293.453 59.3277 293.453 54.1548C293.453 48.9818 297.983 44.6397 303.343 44.6397C308.731 44.6397 313.26 48.9818 313.26 54.1548C313.26 59.3277 308.731 63.6966 303.343 63.6966ZM303.343 59.5422C306.158 59.5422 308.543 57.0763 308.543 54.1548C308.543 51.26 306.158 48.7941 303.343 48.7941C300.529 48.7941 298.143 51.26 298.143 54.1548C298.143 57.0763 300.529 59.5422 303.343 59.5422Z" fill="white"/>
<path d="M112.72 81.4554H120.153V83.375H110.637V69.3455H112.72V81.4554Z" fill="white"/>
<path d="M156.329 71.2651H148.099V75.2677H155.533V77.1873H148.099V81.4554H156.329V83.375H146.016V69.3455H156.329V71.2651Z" fill="white"/>
<path d="M193.656 83.375L192.431 80.516H185.12L183.895 83.375H181.607L187.632 69.3455H189.919L195.943 83.375H193.656ZM185.916 78.6577H191.634L188.775 72.0003L185.916 78.6577Z" fill="white"/>
<path d="M227.807 77.6162V75.8191H233.607V81.4146C232.28 82.7624 230.074 83.6201 228.093 83.6201C224.152 83.6201 220.782 80.2914 220.782 76.3501C220.782 72.4087 224.152 69.1005 228.093 69.1005C230.074 69.1005 232.28 69.9377 233.607 71.306L232.157 72.6946C231.197 71.6531 229.543 70.9997 228.093 70.9997C225.275 70.9997 222.906 73.4502 222.906 76.3501C222.906 79.2703 225.275 81.7209 228.093 81.7209C229.278 81.7209 230.605 81.292 231.565 80.5569V77.6162H227.807Z" fill="white"/>
<path d="M266.345 83.6201C262.812 83.6201 260.321 81.0674 260.321 77.4732V69.3455H262.384V77.4324C262.384 79.9442 264.017 81.7413 266.345 81.7413C268.653 81.7413 270.287 79.9442 270.287 77.4324V69.3455H272.37V77.4732C272.37 81.0674 269.858 83.6201 266.345 83.6201Z" fill="white"/>
<path d="M309.517 71.2651H301.287V75.2677H308.72V77.1873H301.287V81.4554H309.517V83.375H299.204V69.3455H309.517V71.2651Z" fill="white"/>
<path d="M326 20L326 86" stroke="white" stroke-width="4" stroke-linecap="round"/>
<path d="M370.801 69L367.801 62H349.901L346.901 69H341.301L356.051 34.65H361.651L376.401 69H370.801ZM351.851 57.45H365.851L358.851 41.15L351.851 57.45Z" fill="white"/>
<path d="M401.196 34.05H406.096V69H401.196V64.5C399.196 67.7 395.996 69.6 391.996 69.6C385.196 69.6 380.096 64 380.096 56.05C380.096 48.15 385.196 42.55 391.996 42.55C395.996 42.55 399.196 44.45 401.196 47.6V34.05ZM393.196 65.3C397.846 65.3 401.196 61.45 401.196 56.05C401.196 50.65 397.846 46.85 393.196 46.85C388.446 46.85 385.096 50.65 385.096 56.05C385.096 61.45 388.446 65.3 393.196 65.3Z" fill="white"/>
<path d="M442.423 42.55C447.823 42.55 451.723 46.7 451.723 52.55V69H446.873V53.3C446.873 49.5 444.623 46.85 441.373 46.85C437.673 46.85 435.073 49.3 435.073 52.85V69H430.223V53.3C430.223 49.5 427.973 46.85 424.723 46.85C421.023 46.85 418.423 49.3 418.423 52.85V69H413.473V43.15H418.423V46.75C419.723 44.2 422.423 42.55 425.723 42.55C429.473 42.55 432.523 44.55 434.023 47.75C435.223 44.55 438.523 42.55 442.423 42.55Z" fill="white"/>
<path d="M461.285 38.85C459.585 38.85 458.285 37.45 458.285 35.85C458.285 34.3 459.585 32.9 461.285 32.9C462.885 32.9 464.235 34.3 464.235 35.85C464.235 37.45 462.885 38.85 461.285 38.85ZM458.785 69V43.15H463.735V69H458.785Z" fill="white"/>
<path d="M484.046 42.55C489.746 42.55 493.746 46.7 493.746 52.55V69H488.896V53.4C488.896 49.55 486.446 46.85 482.946 46.85C479.346 46.85 476.246 49.2 475.846 52.25V69H470.896V43.15H475.846V46.9C477.396 44.35 480.546 42.55 484.046 42.55Z" fill="white"/>
</svg>
